<svg id="Capa_1" data-name="Capa 1" xmlns="http://www.w3.org/2000/svg" viewBox="0 0 95.63 91.29"><path d="M71.07,26.17q-3.84-3.75-10.62-3.75a11.84,11.84,0,0,0-3.82.65A15.21,15.21,0,0,0,53,24.82c-1.12.74-2.08,1.43-2.89,2.07A28.15,28.15,0,0,0,47.81,29a26.58,26.58,0,0,0-2.3-2.06c-.8-.64-1.77-1.33-2.88-2.07A15.21,15.21,0,0,0,39,23.07a11.9,11.9,0,0,0-3.83-.65q-6.78,0-10.61,3.75t-3.85,10.4a13.07,13.07,0,0,0,.72,4.17A18.48,18.48,0,0,0,23,44.4a27,27,0,0,0,2.06,3q1.16,1.44,1.68,2a10.29,10.29,0,0,0,.83.79l18.87,18.2a1.9,1.9,0,0,0,2.66,0L68,50.18q6.93-6.93,6.93-13.61T71.07,26.17Z"/></svg>